<?xml version="1.0" encoding="iso-8859-1"?>
<!-- Generator: Adobe Illustrator 21.0.0, SVG Export Plug-In . SVG Version: 6.00 Build 0)  -->
<svg version="1.1" id="Capa_1" xmlns="http://www.w3.org/2000/svg" xmlns:xlink="http://www.w3.org/1999/xlink" x="0px" y="0px"
	 viewBox="0 0 512 512" style="enable-background:new 0 0 512 512;" xml:space="preserve">
<circle style="fill:#FFD400;" cx="256" cy="256" r="256"/>
<path style="fill:#FFB000;" d="M512,256c0-10.115-0.606-20.088-1.747-29.897l-128.86-128.86l-19.59,27.036l-55.635-55.635
	l-4.343,45.811l-45.811-45.811l0.53,50.688l-50.688-50.688l6.077,56.241l-56.241-56.241l-25.084,374.711l60.277,60.277
	C211.677,509.085,233.497,512,256,512C397.385,512,512,397.385,512,256z"/>
<polygon style="fill:#FFFFFF;" points="130.608,97.243 155.691,68.645 180.775,97.243 205.855,68.645 230.934,97.243 
	256.013,68.645 281.092,97.243 306.168,68.645 331.243,97.243 356.316,68.645 381.392,97.243 381.392,443.355 356.316,414.757 
	331.243,443.355 306.168,414.757 281.092,443.355 256.013,414.757 230.934,443.355 205.855,414.757 180.775,443.355 
	155.691,414.757 130.608,443.355 "/>
<polygon style="fill:#F2F6FC;" points="256.013,414.757 281.092,443.355 306.168,414.757 331.243,443.355 356.316,414.757 
	381.392,443.355 381.392,97.243 356.316,68.645 331.243,97.243 306.168,68.645 281.092,97.243 256.013,68.645 "/>
<path style="fill:#00C8C8;" d="M301.464,342.143c0-21.639-17.605-39.243-39.243-39.243h-12.442c-4.289,0-7.779-3.49-7.779-7.779
	s3.49-7.779,7.779-7.779h46.441v-31.465h-24.488v-13.635h-31.465v14.806c-17.057,4.263-29.732,19.712-29.732,38.071
	c0,21.639,17.605,39.243,39.243,39.243h12.442c4.289,0,7.779,3.49,7.779,7.779s-3.49,7.779-7.779,7.779h-46.44v31.465h24.488v13.635
	h31.465v-14.806C288.789,375.951,301.464,360.502,301.464,342.143z"/>
<g>
	<polygon style="fill:#1CADB5;" points="296.22,287.342 296.22,255.878 271.732,255.878 271.732,242.243 256,242.243 256,287.342 	
		"/>
	<path style="fill:#1CADB5;" d="M262.221,302.9h-6.208v31.465h6.208c4.289,0,7.779,3.49,7.779,7.779s-3.49,7.779-7.779,7.779h-6.208
		v45.099h15.719v-14.806c17.057-4.263,29.732-19.713,29.732-38.072C301.464,320.504,283.86,302.9,262.221,302.9z"/>
</g>
<rect x="162.33" y="138.33" style="fill:#CDD2E1;" width="187.33" height="26.667"/>
<rect x="256.01" y="138.33" style="fill:#BEC3D2;" width="93.65" height="26.667"/>
<rect x="162.33" y="187.67" style="fill:#CDD2E1;" width="187.33" height="26.667"/>
<rect x="256" y="187.67" style="fill:#BEC3D2;" width="93.67" height="26.667"/>
<g>
</g>
<g>
</g>
<g>
</g>
<g>
</g>
<g>
</g>
<g>
</g>
<g>
</g>
<g>
</g>
<g>
</g>
<g>
</g>
<g>
</g>
<g>
</g>
<g>
</g>
<g>
</g>
<g>
</g>
</svg>
