<?xml version="1.0" encoding="iso-8859-1"?>
<!-- Generator: Adobe Illustrator 19.0.0, SVG Export Plug-In . SVG Version: 6.00 Build 0)  -->
<svg version="1.1" id="Capa_1" xmlns="http://www.w3.org/2000/svg" xmlns:xlink="http://www.w3.org/1999/xlink" x="0px" y="0px"
	 viewBox="0 0 512 512" style="enable-background:new 0 0 512 512;" xml:space="preserve">
<circle style="fill:#D9EEF7;" cx="256" cy="256" r="32"/>
<path style="fill:#FFE451;" d="M501.333,213.333v85.333h-69.227c-4.448,18.209-11.68,35.623-21.44,51.627l48.96,48.96
	l-60.267,60.373l-49.067-48.96c-16.003,9.76-33.417,16.992-51.627,21.44v69.227h-85.333v-69.227
	c-18.209-4.448-35.623-11.68-51.627-21.44l-49.067,48.96l-60.267-60.373l48.96-48.96c-9.76-16.003-16.992-33.417-21.44-51.627
	H10.667v-85.333h69.227c4.448-18.209,11.68-35.623,21.44-51.627l-48.96-49.067l60.267-60.267l49.067,48.96
	c16.003-9.76,33.417-16.992,51.627-21.44V10.667h85.333v69.227c18.209,4.448,35.623,11.68,51.627,21.44l49.067-48.96l60.267,60.267
	l-48.96,49.067c9.76,16.003,16.992,33.417,21.44,51.627L501.333,213.333z M288,256c0-17.673-14.327-32-32-32s-32,14.327-32,32
	s14.327,32,32,32S288,273.673,288,256z"/>
<g>
	<path style="fill:#4C5B66;" d="M501.333,202.667h-61.035c-3.974-13.633-9.44-26.787-16.299-39.221l43.2-43.275
		c4.157-4.164,4.157-10.908,0-15.072L406.901,44.8c-4.164-4.157-10.908-4.157-15.072,0L348.555,88
		c-12.435-6.859-25.588-12.325-39.221-16.299V10.667C309.333,4.776,304.558,0,298.667,0h-85.333
		c-5.891,0-10.667,4.776-10.667,10.667v61.035c-13.633,3.974-26.787,9.44-39.221,16.299l-43.275-43.2
		c-4.164-4.157-10.908-4.157-15.072,0L44.8,105.099c-4.157,4.164-4.157,10.908,0,15.072L88,163.445
		c-6.859,12.435-12.325,25.588-16.299,39.221H10.667C4.776,202.667,0,207.442,0,213.333v85.333c0,5.891,4.776,10.667,10.667,10.667
		h61.035c3.968,13.63,9.431,26.78,16.288,39.211L44.8,391.712c-4.157,4.164-4.157,10.908,0,15.072l60.267,60.373
		c4.165,4.164,10.917,4.164,15.083,0l43.275-43.179c12.44,6.868,25.601,12.341,39.243,16.32v61.035
		c0,5.891,4.776,10.667,10.667,10.667h85.333c5.891,0,10.667-4.776,10.667-10.667v-61.035c13.633-3.974,26.787-9.44,39.221-16.299
		l43.275,43.2c4.165,4.164,10.917,4.164,15.083,0l60.267-60.373c4.157-4.164,4.157-10.908,0-15.072l-43.157-43.168
		c6.856-12.444,12.315-25.609,16.277-39.253h61.035c5.891,0,10.667-4.776,10.667-10.667v-85.333
		C512,207.442,507.224,202.667,501.333,202.667L501.333,202.667z M490.667,288h-58.56c-4.926,0-9.211,3.372-10.368,8.16
		c-4.184,17.138-10.992,33.527-20.181,48.587c-2.558,4.202-1.91,9.609,1.568,13.088l41.429,41.429l-45.216,45.28l-41.515-41.429
		c-3.48-3.469-8.88-4.112-13.077-1.557c-15.059,9.19-31.448,15.997-48.587,20.181c-4.788,1.158-8.16,5.443-8.16,10.368v58.56h-64
		v-58.56c0-4.925-3.372-9.21-8.16-10.368c-17.138-4.184-33.527-10.992-48.587-20.181c-4.197-2.555-9.597-1.912-13.077,1.557
		l-41.515,41.429l-45.216-45.28l41.429-41.429c3.478-3.479,4.126-8.886,1.568-13.088c-9.19-15.059-15.997-31.448-20.181-48.587
		c-1.157-4.788-5.443-8.16-10.368-8.16h-58.56v-64h58.56c4.925,0,9.211-3.372,10.368-8.16c4.184-17.138,10.992-33.527,20.181-48.587
		c2.555-4.197,1.912-9.597-1.557-13.077l-41.44-41.525l45.205-45.205l41.525,41.44c3.48,3.469,8.88,4.112,13.077,1.557
		c15.059-9.19,31.448-15.997,48.587-20.181c4.788-1.157,8.16-5.443,8.16-10.368v-58.56h64v58.56c0,4.925,3.372,9.211,8.16,10.368
		c17.138,4.184,33.527,10.992,48.587,20.181c4.197,2.555,9.597,1.912,13.077-1.557l41.525-41.44l45.205,45.205l-41.44,41.525
		c-3.469,3.48-4.112,8.88-1.557,13.077c9.19,15.059,15.997,31.448,20.181,48.587c1.158,4.788,5.443,8.16,10.368,8.16h58.56
		L490.667,288z"/>
	<path style="fill:#4C5B66;" d="M256,213.333c-23.564,0-42.667,19.103-42.667,42.667s19.103,42.667,42.667,42.667
		s42.667-19.103,42.667-42.667S279.564,213.333,256,213.333z M256,277.333c-11.782,0-21.333-9.551-21.333-21.333
		c0-11.782,9.551-21.333,21.333-21.333s21.333,9.551,21.333,21.333C277.333,267.782,267.782,277.333,256,277.333z"/>
	<path style="fill:#4C5B66;" d="M262.251,160l-24.459,24.459l15.083,15.083l42.667-42.667c4.164-4.165,4.164-10.917,0-15.083
		l-42.667-42.667l-15.083,15.083l24.459,24.459H256C191.23,138.743,138.743,191.23,138.667,256H160
		c0.059-52.995,43.005-95.941,96-96H262.251z"/>
	<path style="fill:#4C5B66;" d="M256,352h-6.251l24.459-24.459l-15.083-15.083l-42.667,42.667c-4.164,4.165-4.164,10.917,0,15.083
		l42.667,42.667l15.083-15.083l-24.459-24.459H256C320.77,373.257,373.257,320.77,373.333,256H352
		C351.941,308.995,308.995,351.941,256,352z"/>
</g>
<g>
</g>
<g>
</g>
<g>
</g>
<g>
</g>
<g>
</g>
<g>
</g>
<g>
</g>
<g>
</g>
<g>
</g>
<g>
</g>
<g>
</g>
<g>
</g>
<g>
</g>
<g>
</g>
<g>
</g>
</svg>
