<?xml version="1.0" encoding="iso-8859-1"?>
<!-- Generator: Adobe Illustrator 19.0.0, SVG Export Plug-In . SVG Version: 6.00 Build 0)  -->
<svg version="1.1" id="Capa_1" xmlns="http://www.w3.org/2000/svg" xmlns:xlink="http://www.w3.org/1999/xlink" x="0px" y="0px"
	 viewBox="0 0 512 512" style="enable-background:new 0 0 512 512;" xml:space="preserve">
<path style="fill:#F6B73C;" d="M500.6,211.599L475,205.3c-5.4-24.3-15-47.401-28.2-68.401l12.9-21.599c3.6-6,2.701-13.5-2.1-18.3
	L415,54.399c-4.799-4.799-12.299-5.7-18.3-2.1L375.099,65.2C354.101,52,331,42.4,306.7,37l-6.301-25.6C298.9,4.799,292.899,0,286,0
	h-60c-6.899,0-12.9,4.799-14.399,11.4L205.3,37c-24.3,5.4-47.401,15-68.399,28.2L115.3,52.299c-6-3.6-13.5-2.699-18.3,2.1L54.401,97
	c-4.801,4.799-5.7,12.299-2.1,18.3l12.9,21.599C52,157.899,42.4,181,37,205.3l-25.6,6.299C4.799,213.1,0,219.099,0,226v60
	c0,6.899,4.799,12.9,11.4,14.399L37,306.7c5.4,24.3,15,47.399,28.2,68.399L52.3,396.7c-3.6,6-2.701,13.5,2.1,18.3L97,457.599
	c4.799,4.801,12.299,5.7,18.3,2.1l21.601-12.9C157.899,460,181,469.6,205.3,475l6.301,25.6c1.5,6.599,7.5,11.4,14.399,11.4h60
	c6.899,0,12.9-4.801,14.399-11.4L306.7,475c24.3-5.4,47.401-15,68.399-28.2l21.601,12.9c6,3.6,13.5,2.701,18.3-2.1l42.599-42.6
	c4.801-4.799,5.7-12.299,2.1-18.3l-12.9-21.601c13.2-21,22.8-44.099,28.2-68.399l25.6-6.301c6.601-1.5,11.4-7.5,11.4-14.399v-60
	C512,219.099,507.201,213.1,500.6,211.599z M256,391c-74.399,0-135-60.601-135-135c0-74.401,60.601-135,135-135s135,60.599,135,135
	C391,330.399,330.399,391,256,391z"/>
<path style="fill:#F29737;" d="M512,226v60c0,6.899-4.799,12.9-11.4,14.399L475,306.7c-5.4,24.3-15,47.399-28.2,68.399l12.9,21.601
	c3.6,6,2.701,13.5-2.1,18.3L415,457.599c-4.799,4.801-12.299,5.7-18.3,2.1l-21.601-12.9C354.101,460,331,469.6,306.7,475
	l-6.301,25.6c-1.5,6.599-7.5,11.4-14.399,11.4h-30V391c74.399,0,135-60.601,135-135c0-74.401-60.601-135-135-135V0h30
	c6.899,0,12.9,4.799,14.399,11.4L306.7,37c24.3,5.4,47.401,15,68.399,28.2L396.7,52.299c6-3.6,13.5-2.699,18.3,2.1L457.599,97
	c4.801,4.799,5.7,12.299,2.1,18.3l-12.9,21.599c13.2,21,22.8,44.101,28.2,68.401l25.6,6.299C507.201,213.1,512,219.099,512,226z"/>
<path style="fill:#7984EB;" d="M256,211c-41.4,0-75,33.6-75,75v30c0,8.399,6.599,15,15,15h120c8.401,0,15-6.601,15-15v-30
	C331,244.6,297.4,211,256,211z"/>
<path style="fill:#6B77E8;" d="M331,286v30c0,8.399-6.599,15-15,15h-60V211C297.4,211,331,244.6,331,286z"/>
<path style="fill:#83C9FF;" d="M256,151c-24.901,0-45,20.099-45,45c0,24.899,20.099,45,45,45s45-20.101,45-45
	C301,171.099,280.901,151,256,151z"/>
<path style="fill:#00A5FF;" d="M301,196c0,24.899-20.099,45-45,45v-90C280.901,151,301,171.099,301,196z"/>
<g>
</g>
<g>
</g>
<g>
</g>
<g>
</g>
<g>
</g>
<g>
</g>
<g>
</g>
<g>
</g>
<g>
</g>
<g>
</g>
<g>
</g>
<g>
</g>
<g>
</g>
<g>
</g>
<g>
</g>
</svg>
