<svg id="Capa_1" enable-background="new 0 0 512 512" height="512" viewBox="0 0 512 512" width="512" xmlns="http://www.w3.org/2000/svg"><g><path d="m166 60h330v452h-330z" fill="#ececf1"/><g fill="#d8d8d8"><path d="m329 60h165v452h-165z"/><path d="m286 361h150v30h-150z"/><path d="m286 421h150v30h-150z"/></g><path d="m226 361h30v30h-30z" fill="#444"/><path d="m226 421h30v30h-30z" fill="#444"/><g><circle cx="121" cy="105" fill="#995c70" r="105"/><path d="m226 105c0-57.891-47.109-105-105-105v210c57.891 0 105-47.109 105-105z" fill="#8c4d62"/><path d="m163.422 83.789-21.211-21.211-21.211 21.211-21.211-21.211-21.211 21.211 21.211 21.211-21.211 21.211 21.211 21.211 21.211-21.211 21.211 21.211 21.211-21.211-21.211-21.211z" fill="#ececf1"/><path d="m163.422 126.211-21.211-21.211 21.211-21.211-21.211-21.211-21.211 21.211v42.422l21.211 21.211z" fill="#d8d8d8"/></g><g><path d="m334.501 210.41c-1.469-.353-2.254-.635-3.501-.958-12.85-3.32-15-5.48-15-14.453 0-8.276 6.724-15 15-15s15 6.724 15 15h30c0-19.53-12.578-36.024-30-42.237v-17.762h-15-15v17.763c-17.422 6.213-30 22.707-30 42.237 0 34.614 25.972 40.854 41.499 44.59 1.469.353 2.254.635 3.501.958 12.85 3.32 15 5.48 15 14.453 0 8.276-6.724 15-15 15s-15-6.724-15-15h-30c0 19.53 12.578 36.024 30 42.237v17.762h15 15v-17.763c17.422-6.213 30-22.707 30-42.237 0-34.614-25.972-40.854-41.499-44.59z" fill="#e6a82e"/><g fill="#b38324"><path d="m346 195h30c0-19.53-12.578-36.024-30-42.237v-17.763h-15v45c8.276 0 15 6.724 15 15z"/><path d="m346 297.237c17.422-6.213 30-22.707 30-42.237 0-34.614-25.972-40.854-41.499-44.59-1.469-.353-2.254-.635-3.501-.958v31.095c12.85 3.32 15 5.48 15 14.453 0 8.276-6.724 15-15 15v45h15z"/></g></g><path d="m331 361h105v30h-105z" fill="#babac0"/><path d="m331 421h105v30h-105z" fill="#babac0"/></g></svg>